<svg width="33" height="17" fill="none" xmlns="http://www.w3.org/2000/svg"><g clip-path="url(#a)" fill="#2F2482"><path d="M14.64 16.5H2.029c-.14 0-.293.02-.42-.033-.586-.225-.872-.82-.64-1.513.018-.053.042-.1.06-.152.043-.179.153-.245.317-.225.122.013.244 0 .366 0H22.18c.384-.013.713-.364.719-.773.006-.404-.28-.827-.701-.82H2.248c-.47 0-.426.027-.231-.423.2-.463.408-.925.61-1.394.048-.113.109-.172.23-.152.092.013.184 0 .275 0 6.699 0 13.403 0 20.102.006.573 0 1.128-.08 1.646-.343a5.67 5.67 0 0 0 .689-.41c1.03-.734 2.048-1.48 3.078-2.208.47-.33 1-.489 1.56-.561.537-.073 1.073-.033 1.61-.047.213-.006.414.06.609.16.323.17.567.713.414 1.116-.128.33-.25.667-.384.998-.494 1.21-.993 2.412-1.48 3.622-.184.449-.342.905-.604 1.315-.628.971-1.475 1.56-2.548 1.777-.244.047-.482.06-.726.06H14.64Z"/><path d="M13.129 9.686H3.047c-.353 0-.402.04-.189-.343.427-.793.847-1.593 1.28-2.38a2.907 2.907 0 0 1 1.81-1.434c.324-.092.653-.132.988-.132h19.096c.33 0 .646.046.927.245.402.277.676.654.713 1.19.018.29.012.29-.207.449-.677.489-1.36.984-2.042 1.473-.183.133-.372.265-.555.404-.487.37-1.036.522-1.621.522-3.377.006-6.748.006-10.118.006Zm9.825-1.513h.366c.122 0 .244.006.366 0 .323-.013.59-.291.615-.641a.652.652 0 0 0-.493-.681 1.912 1.912 0 0 0-.39-.046c-.336-.007-.671-.007-1.006 0-.11 0-.22.02-.323.053a.696.696 0 0 0-.457.72c.048.344.31.595.621.601.232 0 .47-.006.701-.006Zm-12.172 0c.256 0 .506.006.762 0 .274-.013.524-.251.567-.542.042-.278-.073-.621-.342-.734a1.24 1.24 0 0 0-.408-.099 20.24 20.24 0 0 0-1.097 0c-.098 0-.201.027-.299.046-.31.073-.548.397-.518.701.037.35.305.621.628.634.244 0 .475-.006.707-.006Zm4.066 0c.255 0 .505.006.761 0 .384-.02.665-.47.543-.866-.098-.317-.335-.502-.665-.509a38.985 38.985 0 0 0-1.243 0c-.091 0-.177.033-.262.053-.323.08-.494.502-.445.76.055.29.305.575.616.562.225-.007.463 0 .694 0Zm-8.125 0c.262 0 .53.006.792-.007.25-.013.427-.178.494-.423.067-.224.085-.469-.092-.68-.17-.212-.384-.271-.621-.271-.378-.007-.75-.007-1.128 0a.953.953 0 0 0-.268.046c-.354.106-.543.39-.482.753.049.298.244.575.634.575.226.007.451.007.67.007Zm12.147 0h.732c.195 0 .372-.08.481-.238.342-.49.067-1.005-.323-1.09-.097-.02-.195-.047-.298-.047a30.351 30.351 0 0 0-1.098 0c-.097 0-.2.027-.298.046-.33.086-.5.364-.47.76a.603.603 0 0 0 .604.569c.225.006.451 0 .67 0ZM13.458.5c2.365 0 4.73.007 7.1 0 .817 0 1.5.317 2.036.972.214.257.372.568.543.865.293.522.573 1.058.86 1.586.066.12.054.14-.074.146h-9.807c-.616 0-1.097-.284-1.506-.78a13.88 13.88 0 0 0-.993-1.117c-.31-.304-.707-.41-1.122-.41h-3.9c-.122 0-.244-.013-.366 0-.214.027-.348-.092-.464-.257a2.018 2.018 0 0 1-.164-.278c-.183-.363.012-.734.39-.74.396-.007.792 0 1.189 0C9.276.5 11.367.5 13.458.5Zm3.273 2.386a.602.602 0 0 0 .621-.602c-.006-.317-.274-.62-.579-.64-.292-.014-.56.264-.572.588-.013.363.219.647.53.654Zm2.127.006c.323 0 .573-.277.573-.627 0-.291-.293-.615-.567-.622-.28-.006-.579.318-.585.635-.006.343.25.614.58.614Zm2.078 0c.287.04.58-.33.573-.594-.012-.337-.274-.655-.56-.648-.299.007-.58.304-.591.628a.593.593 0 0 0 .578.614Zm-6.814-.627c-.006.39.195.608.543.634.268.02.579-.258.573-.575 0-.436-.232-.634-.567-.667-.299-.033-.543.264-.549.608Z"/></g><defs><clipPath id="a"><path fill="#fff" transform="translate(.89 .5)" d="M0 0h32v16H0z"/></clipPath></defs></svg>