<svg width="41" height="25" fill="none" xmlns="http://www.w3.org/2000/svg"><path d="M24.049 4.272c0 2.296-1.737 4.483-3.528 4.374-1.954-.055-3.31-2.023-3.256-4.592C17.373 1.757 18.567.5 20.738.5c1.846 0 3.365 1.695 3.311 3.772Z" fill="#2F2482"/><path d="M24.049 4.272c0 2.296-1.737 4.483-3.528 4.374-1.954-.055-3.31-2.023-3.256-4.592C17.373 1.757 18.567.5 20.738.5c1.846 0 3.365 1.695 3.311 3.772Z" fill="#2F2482"/><g fill="#2F2482"><path d="M27.957 22.97c-.163.546-.326 1.093-.597 1.53H14.008c-.271-.437-.434-.984-.597-1.53-1.03-3.554-.488-6.998.543-10.388.163-.437.271-.93.434-1.367.543-1.64 2.443-2.241 4.18-1.476.705.328 1.41.492 2.116.492.706 0 1.411-.164 2.117-.492 1.736-.765 3.636-.11 4.179 1.476.108.274.163.547.271.875 1.14 3.499 1.737 7.107.706 10.88ZM39.951 24.5H29.042c.163-.437.272-.82.38-1.148 1.194-4.264.38-8.31-.705-11.809a3.1 3.1 0 0 1 1.682.328c.76.328 1.411.492 2.117.492.705 0 1.357-.164 2.116-.492 1.737-.765 3.637-.11 4.18 1.476 1.194 3.663 2.062 7.326 1.14 11.153ZM35.88 6.459c0 2.296-1.736 4.483-3.527 4.374-1.954-.055-3.31-2.023-3.257-4.593.11-2.296 1.303-3.553 3.474-3.553 1.845 0 3.365 1.695 3.31 3.772Z"/></g><g fill="#2F2482"><path d="M11.946 23.352c.108.328.217.71.38 1.148H.71c-.868-3.827-.054-7.49 1.14-11.098.543-1.64 2.442-2.241 4.179-1.476.706.328 1.411.492 2.117.492.705 0 1.357-.164 2.116-.492.815-.328 1.629-.437 2.389-.219-1.086 3.444-1.9 7.435-.706 11.645ZM11.512 6.459c0 2.296-1.737 4.483-3.528 4.374-1.954-.055-3.31-2.023-3.257-4.593.109-2.296 1.303-3.553 3.42-3.553 1.9 0 3.365 1.695 3.365 3.772Z"/></g><path d="M4.782 6.295c.054-2.35 1.248-3.608 3.365-3.608 1.845 0 3.365 1.695 3.365 3.772 0 2.296-1.737 4.483-3.528 4.374-1.954-.055-3.31-1.969-3.202-4.538ZM12.597 11.707c-1.085 3.444-1.845 7.49-.651 11.7.108.328.217.71.38 1.148H.71c-.868-3.827-.054-7.49 1.14-11.098.543-1.64 2.442-2.242 4.179-1.476.706.328 1.411.492 2.117.492.705 0 1.357-.164 2.116-.492.815-.438 1.629-.492 2.334-.274ZM17.319 4.108C17.373 1.758 18.567.5 20.739.5c1.899 0 3.364 1.695 3.364 3.772 0 2.296-1.737 4.483-3.528 4.374-1.953-.055-3.31-1.968-3.256-4.538ZM27.957 22.97c-.163.546-.326 1.093-.597 1.53H14.009c-.272-.437-.435-.984-.598-1.53-1.03-3.554-.488-6.998.543-10.388.163-.437.272-.93.434-1.367.543-1.64 2.443-2.241 4.18-1.476.705.328 1.41.492 2.116.492.706 0 1.411-.164 2.117-.492 1.737-.765 3.636-.11 4.179 1.476.109.274.163.547.271.875 1.14 3.499 1.737 7.107.706 10.88ZM29.15 6.295c.055-2.35 1.249-3.608 3.42-3.608 1.9 0 3.365 1.695 3.365 3.772 0 2.296-1.737 4.483-3.528 4.374-1.954-.055-3.31-1.969-3.256-4.538ZM39.951 24.5H29.042c.163-.437.272-.82.38-1.148 1.194-4.264.38-8.31-.705-11.809a3.102 3.102 0 0 1 1.682.328c.76.328 1.411.492 2.117.492.705 0 1.357-.164 2.116-.492 1.737-.765 3.637-.109 4.18 1.476 1.194 3.663 2.062 7.326 1.14 11.153Z" fill="#2F2482"/></svg>