<svg width="33" height="25" fill="none" xmlns="http://www.w3.org/2000/svg"><g clip-path="url(#a)"><path d="M4.029 8.68c-.613 0-1.196.007-1.775-.007a1.017 1.017 0 0 1-.451-.119c-.23-.13-.336-.355-.343-.623a19.048 19.048 0 0 1 0-.613.738.738 0 0 1 .725-.75c.237-.01.47-.006.708-.003.431.01.72.285.75.723.023.351.178.597.504.726.119.05.191.03.254-.106.836-1.8 1.669-3.603 2.528-5.393C7.555 1.21 8.61.516 10.047.51a1476.4 1476.4 0 0 1 12.117 0c1.445.006 2.502.703 3.128 2.012.85 1.783 1.679 3.573 2.515 5.363.086.182.112.195.3.112a.722.722 0 0 0 .454-.62c.063-.59.306-.812.902-.812.188 0 .372-.006.56.004.431.02.728.328.731.759.003.199.003.397 0 .596a.737.737 0 0 1-.754.753c-.537.003-1.077 0-1.613 0h-.178a.51.51 0 0 0-.04.043c.178.301.333.62.54.898.224.298.49.567.751.832.494.51 1.008 1 1.495 1.518.774.812 1.146 1.793 1.149 2.913.007 2.824.003 5.645 0 8.469 0 .702-.448 1.147-1.15 1.147h-1.613c-.688 0-1.126-.448-1.126-1.144v-2.317H3.992v2.36c0 .633-.444 1.094-1.07 1.1a76.9 76.9 0 0 1-1.745 0C.562 24.49.11 24.027.11 23.41c0-2.89-.01-5.778.004-8.668.006-1.07.405-2.005 1.149-2.777.662-.69 1.35-1.36 2.012-2.052.332-.348.566-.759.754-1.233Zm12.076.447h9.924c.385 0 .55-.242.402-.6-.524-1.276-1.044-2.552-1.577-3.824-.29-.693-.823-1.044-1.57-1.048-4.758-.003-9.513 0-14.27 0-.853 0-1.377.355-1.703 1.147-.504 1.223-.997 2.453-1.518 3.67-.164.387.023.662.432.662 3.299-.01 6.588-.007 9.88-.007Zm0 7.272h-3.503c-.349 0-.5.176-.464.52.095.902.777 1.532 1.686 1.535 1.524.007 3.049.007 4.573 0 .89-.003 1.56-.61 1.676-1.488.053-.398-.095-.57-.494-.57-1.159 0-2.314.003-3.474.003Zm11.333-5.528c-.7.023-1.356.199-1.89.702-.632.6-.645 1.449-.039 2.072.892.915 2.667.994 3.697.162.82-.662.83-1.67.02-2.336-.517-.425-1.126-.58-1.788-.6ZM4.763 14.39c.665-.017 1.274-.176 1.788-.6.8-.66.8-1.657.003-2.317a2.429 2.429 0 0 0-1.04-.507c-.92-.206-1.785-.09-2.536.517-.783.633-.79 1.608-.03 2.27.524.458 1.153.617 1.815.637Zm-.622 2.008H2.43c-.233 0-.381.093-.444.269-.066.182-.016.348.152.5.26.236.523.468.78.713.138.133.29.182.477.182.652-.003 1.304 0 1.956 0 .224 0 .451.007.675-.003.31-.013.474-.235.418-.54-.043-.232-.085-.468-.131-.7-.06-.308-.191-.417-.51-.42-.554-.004-1.107 0-1.663 0Zm23.946 0c-.57 0-1.14-.003-1.709 0-.276 0-.415.12-.467.392-.046.232-.086.467-.129.699-.066.348.102.567.448.57.882.007 1.765.01 2.647-.007a.704.704 0 0 0 .395-.159c.274-.222.524-.467.787-.702.191-.173.244-.338.175-.524-.07-.18-.214-.265-.465-.265-.563-.007-1.122-.004-1.682-.004Z" fill="#2F2482"/><path d="m27.11 2.42-22 21.12M5.11 2.42l22 21.12" stroke="#F25C54" stroke-width="3" stroke-linecap="round" stroke-linejoin="round"/></g><defs><clipPath id="a"><path fill="#fff" transform="translate(.11 .5)" d="M0 0h32v24H0z"/></clipPath></defs></svg>