<svg width="24" height="20" fill="none" xmlns="http://www.w3.org/2000/svg"><g clip-path="url(#a)" fill="#2F2482"><path d="m11.715 4.587 1.342 1.14c2.326 1.98 4.652 3.964 6.987 5.94.17.144.235.287.235.507-.008 2.211-.02 4.423.004 6.634.008.746-.543 1.192-1.208 1.192-4.916-.012-9.836-.008-14.752-.008-.567 0-.98-.275-1.122-.761a1.283 1.283 0 0 1-.045-.375c-.004-2.26 0-4.515-.004-6.774 0-.151.049-.255.166-.355 2.76-2.343 5.516-4.69 8.272-7.037.032-.028.069-.056.125-.103ZM14.062 14.6c0-.208.004-.41 0-.618-.004-.307-.178-.478-.49-.482a63.666 63.666 0 0 0-1.236 0c-.313 0-.495.171-.499.478-.004.406-.004.809 0 1.215.004.307.174.49.486.494.426.008.851.008 1.277 0 .296-.008.462-.19.466-.49 0-.199-.004-.398-.004-.598Zm-4.701-.005c0 .208-.004.411 0 .618.004.28.166.462.442.47.445.012.891.012 1.337 0 .26-.008.438-.183.446-.43.012-.438.012-.877 0-1.315-.008-.275-.195-.438-.474-.438a67.908 67.908 0 0 0-1.277 0c-.292.004-.466.171-.474.458-.004.215 0 .426 0 .638Zm1.114-3.53c-.202 0-.405-.004-.608 0-.336.004-.502.171-.506.506v1.176c0 .318.17.494.494.498.418.004.835.004 1.257 0 .3-.004.474-.176.478-.479.004-.41.004-.82 0-1.235-.004-.287-.19-.466-.486-.466-.211-.004-.422 0-.629 0Zm2.476 0h-.303c-.11 0-.215-.004-.325 0-.312.008-.478.16-.486.466-.012.419-.008.837 0 1.255.004.287.182.455.474.459.434.004.863.004 1.297 0 .276-.004.454-.18.454-.455.004-.426.008-.848 0-1.275-.004-.27-.182-.442-.462-.45-.215-.004-.434 0-.649 0Z"/><path d="M11.707 3.172c-.365.311-.73.614-1.09.92C7.98 6.34 5.34 8.585 2.702 10.833c-.433.366-.92.47-1.45.266-.528-.203-.815-.606-.868-1.152-.04-.45.122-.836.47-1.135.665-.574 1.333-1.144 2.006-1.706a.502.502 0 0 0 .199-.442c-.008-.825-.004-1.646-.004-2.47 0-.451.15-.594.612-.59h1.317c.41 0 .567.151.567.545v.646c.097-.076.158-.12.215-.167 1.65-1.399 3.29-2.798 4.936-4.196.669-.57 1.35-.574 2.014-.004 3.267 2.777 6.533 5.558 9.8 8.34.498.426.656 1.016.425 1.578a1.383 1.383 0 0 1-2.184.518c-.774-.65-1.544-1.311-2.314-1.969-2.189-1.864-4.377-3.73-6.57-5.59-.048-.04-.1-.08-.166-.132ZM14.062 14.6c0 .2.004.399 0 .598-.004.3-.17.482-.466.49a27.44 27.44 0 0 1-1.277 0c-.312-.008-.482-.187-.486-.494a60.04 60.04 0 0 1 0-1.215c.004-.307.186-.474.498-.478.414 0 .823-.004 1.236 0 .313.004.487.171.49.482.009.207.005.41.005.617ZM9.36 14.597c0-.212-.003-.427 0-.638.009-.287.183-.454.475-.458a67.9 67.9 0 0 1 1.276 0c.28.004.466.167.475.438.012.438.012.877 0 1.315-.008.247-.187.422-.446.43-.446.012-.892.012-1.338 0-.275-.008-.437-.195-.441-.47-.004-.203 0-.41 0-.617Z"/><path d="M10.475 11.066c.211 0 .418-.004.629 0 .295.004.486.18.486.466.004.41.004.821 0 1.236-.004.302-.174.474-.478.478-.418.004-.835.004-1.257 0-.324-.004-.494-.176-.494-.498v-1.176c0-.335.166-.502.506-.506.203-.004.406 0 .608 0ZM12.951 11.066c.215 0 .434-.004.649 0 .275.004.458.175.462.45.008.427.004.849 0 1.275-.004.275-.178.45-.454.455-.434.004-.863.004-1.297 0-.292-.004-.47-.172-.474-.459a32.421 32.421 0 0 1 0-1.255c.008-.307.178-.458.486-.466.11-.004.215 0 .324 0h.304Z"/></g><defs><clipPath id="a"><path fill="#fff" transform="translate(.38)" d="M0 0h22.667v20H0z"/></clipPath></defs></svg>