<svg width="25" height="24" fill="none" xmlns="http://www.w3.org/2000/svg"><g clip-path="url(#a)" fill="#F8F8F8"><path d="M24.107 23.907c-.154-.595-.315-1.183-.464-1.784-.44-1.752-.88-3.505-1.313-5.264-.012-.044-.031-.087-.05-.149-.371.39-.811.62-1.35.706.13.997-.155 1.864-.86 2.564-.707.694-1.568.967-2.565.824-.087.52-.279.973-.681 1.363.39.099.75.192 1.108.278 1.989.502 3.977.998 5.965 1.5.043.012.08.036.124.049l.086-.087ZM5.285 7.296c.025.025.069.074.118.124 3.79 3.79 7.587 7.58 11.378 11.377.47.471.997.682 1.653.477.973-.31 1.344-1.53.706-2.328-.068-.087-.142-.168-.216-.248L7.497 5.27c-.038-.037-.081-.075-.1-.093-.7.706-1.393 1.4-2.112 2.118ZM2.046 8.306C4.176 6.18 6.282 4.069 8.432 1.92 7.892 1.437 7.397.88 6.802.483c-1.176-.78-2.644-.582-3.69.421a83.88 83.88 0 0 0-2.1 2.1c-1.196 1.239-1.19 3.029.006 4.267.334.347.681.688 1.028 1.035ZM9.49 3.035 8.439 4.088c.043.05.099.105.149.16C12.383 8.04 16.174 11.83 19.97 15.62c.18.18.372.335.644.328.31-.006.545-.148.67-.427a.71.71 0 0 0-.087-.774 2.132 2.132 0 0 0-.161-.174c-3.797-3.796-7.6-7.593-11.397-11.396-.043-.043-.092-.093-.148-.142ZM4.19 8.33c-.354.353-.695.7-1.054 1.053.044.05.105.112.161.174 3.79 3.784 7.575 7.574 11.365 11.359.18.18.372.334.644.328a.717.717 0 0 0 .663-.403c.136-.266.112-.526-.055-.774a1.674 1.674 0 0 0-.174-.192L4.325 8.46c-.037-.037-.086-.08-.136-.13Z"/></g><defs><clipPath id="a"><path fill="#fff" transform="matrix(-1 0 0 1 24.107 0)" d="M0 0h23.994v24H0z"/></clipPath></defs></svg>