<svg width="36" height="19" fill="none" xmlns="http://www.w3.org/2000/svg"><g clip-path="url(#a)" fill="#F8F8F8"><path d="M15.15 19H1.254c-.154 0-.322.023-.463-.04-.645-.266-.96-.973-.705-1.797.02-.062.047-.117.067-.18.047-.212.168-.29.35-.267.134.016.268 0 .402 0H23.456c.423-.015.786-.431.793-.918.006-.479-.31-.981-.773-.973H1.497c-.517 0-.47.031-.255-.502.222-.55.45-1.1.672-1.656.053-.134.12-.204.255-.18.1.015.201 0 .302 0 7.38 0 14.767 0 22.147.007.631 0 1.242-.094 1.813-.408.262-.141.517-.306.759-.487 1.135-.87 2.256-1.758 3.391-2.621.517-.392 1.101-.58 1.72-.667.59-.086 1.181-.04 1.772-.055.235-.008.457.07.671.188.356.204.625.848.457 1.327-.14.392-.275.792-.423 1.185-.544 1.436-1.095 2.864-1.632 4.3-.201.534-.376 1.076-.665 1.562-.691 1.154-1.625 1.852-2.807 2.111-.268.055-.53.07-.799.07H15.15Z"/><path d="M13.484 10.909H2.377c-.39 0-.443.047-.208-.408.47-.942.933-1.892 1.41-2.826.457-.887 1.142-1.444 1.995-1.703a3.66 3.66 0 0 1 1.088-.157H27.7c.363 0 .712.055 1.021.29.443.33.745.778.786 1.413.02.346.013.346-.229.534-.745.58-1.497 1.17-2.25 1.75-.2.157-.409.314-.61.479-.537.44-1.142.62-1.786.62-3.72.008-7.434.008-11.148.008ZM24.31 9.11h.403c.134 0 .269.008.403 0 .356-.015.651-.345.678-.76.027-.37-.208-.73-.544-.81a1.963 1.963 0 0 0-.43-.054c-.369-.008-.738-.008-1.107 0a1.1 1.1 0 0 0-.356.063c-.323.11-.551.51-.504.855.054.408.343.706.685.714.255 0 .517-.008.772-.008Zm-13.41 0c.282 0 .557.008.84 0 .301-.015.577-.298.624-.643.047-.33-.08-.738-.376-.871a1.285 1.285 0 0 0-.45-.118c-.403-.016-.806-.008-1.209 0-.107 0-.221.031-.329.055-.342.086-.604.47-.57.832.04.416.335.738.69.753.27 0 .525-.008.78-.008Zm4.479 0c.282 0 .557.008.84 0 .422-.023.731-.557.597-1.028-.107-.376-.37-.596-.732-.604a39.897 39.897 0 0 0-1.37 0c-.1 0-.195.04-.289.063-.355.094-.544.596-.49.902.06.346.336.683.678.667.249-.007.51 0 .766 0Zm-8.951 0c.288 0 .584.008.872-.007.276-.016.47-.212.544-.503.074-.266.094-.557-.1-.808-.188-.251-.423-.322-.685-.322a32.812 32.812 0 0 0-1.243 0c-.1 0-.194.024-.295.055-.39.126-.598.463-.53.895.053.353.268.683.698.683.248.007.497.007.739.007Zm13.383 0h.806c.215 0 .41-.094.53-.282.376-.58.074-1.193-.356-1.295-.107-.024-.214-.055-.329-.055a31.066 31.066 0 0 0-1.208 0c-.108 0-.222.031-.33.055-.362.102-.55.432-.516.903.026.384.302.667.664.674.249.008.497 0 .739 0ZM13.847 0c2.606 0 5.211.008 7.823 0 .9 0 1.652.377 2.243 1.154.235.306.41.675.598 1.028.322.62.631 1.255.947 1.883.074.142.06.165-.081.173H14.572c-.678 0-1.209-.338-1.658-.926-.35-.463-.706-.91-1.095-1.326-.343-.361-.779-.487-1.236-.487H6.286c-.135 0-.269-.016-.403 0-.235.031-.383-.11-.51-.306a2.443 2.443 0 0 1-.182-.33c-.201-.431.013-.87.43-.879.436-.008.873 0 1.31 0C9.24 0 11.543 0 13.846 0Zm3.606 2.833c.383.008.685-.314.685-.714-.007-.377-.302-.738-.638-.761-.322-.016-.618.314-.631.698-.014.432.242.77.584.777Zm2.344.008c.356 0 .63-.33.63-.746 0-.345-.321-.73-.624-.737-.309-.008-.638.376-.644.753-.007.408.275.73.638.73Zm2.29 0c.315.047.637-.392.63-.706-.013-.4-.301-.777-.617-.77-.33.008-.638.362-.651.746-.02.385.282.73.638.73Zm-7.508-.746c-.007.463.215.722.598.754.295.023.638-.306.63-.683 0-.518-.254-.753-.624-.793-.329-.039-.597.314-.604.722Z"/></g><defs><clipPath id="a"><path fill="#fff" d="M0 0h35.255v19H0z"/></clipPath></defs></svg>