<svg width="32" height="22" viewBox="0 0 32 22" fill="none" xmlns="http://www.w3.org/2000/svg">
<path d="M21.3228 21.2419C17.8578 21.2419 14.4948 21.2419 11.0298 21.2419C11.0298 14.4139 11.0298 7.68776 11.0298 0.859741C14.4948 0.859741 17.8578 0.859741 21.3228 0.859741C21.3228 1.16547 21.3228 1.3693 21.3228 1.67503C21.3228 7.28012 21.3228 12.9871 21.3228 18.5922C21.3228 19.4075 21.3228 20.3247 21.3228 21.2419Z" fill="#EFF0EF"/>
<path d="M11.0296 0.757917C11.0296 7.58594 11.0296 14.312 11.0296 21.1401C7.87036 21.1401 4.60922 21.1401 1.44998 21.1401C1.04234 21.1401 0.94043 21.1401 0.94043 20.6305C0.94043 14.1082 0.94043 7.68785 0.94043 1.16556C0.94043 0.656006 1.04234 0.656006 1.44998 0.656006C4.60922 0.757917 7.87036 0.757917 11.0296 0.757917Z" fill="#008F69"/>
<path d="M21.3228 21.2419C21.3228 20.3247 21.3228 19.5094 21.3228 18.5922C21.3228 12.9871 21.3228 7.28012 21.3228 1.67503C21.3228 1.3693 21.3228 1.16547 21.3228 0.859741C24.482 0.859741 27.7431 0.859741 30.9024 0.859741C31.31 0.859741 31.4119 0.859741 31.4119 1.3693C31.4119 7.89158 31.4119 14.312 31.4119 20.8343C31.4119 21.3438 31.31 21.3438 30.9024 21.3438C27.7431 21.2419 24.482 21.2419 21.3228 21.2419Z" fill="#CC2A3E"/>
</svg>
