<svg width="233" height="63" viewBox="0 0 233 63" fill="none" xmlns="http://www.w3.org/2000/svg">
<g clip-path="url(#clip0_245_3885)">
<path d="M28.8045 30.5186C26.8536 31.2114 24.9027 31.9426 22.9518 32.6738C21.5364 33.2126 21.5364 33.2126 22.0337 34.6365C22.1484 34.9444 22.2632 35.2138 22.4162 35.5987C28.575 33.9053 34.8102 32.5583 41.2368 32.212C41.122 29.8644 40.969 27.6323 40.8542 25.3231C41.2368 25.2462 41.5428 25.1307 41.8106 25.1307C44.8326 25.2077 47.8546 25.3231 50.8766 25.4386C51.6416 25.4771 51.8712 25.785 51.7181 26.5932C51.4121 28.2865 51.2208 29.9798 50.9531 31.6732C51.6034 31.9426 51.8711 31.7117 51.9859 31.0574C52.2154 29.518 52.4832 27.9786 52.751 26.4392C52.9422 25.0538 52.7892 24.6304 51.4121 24.515C48.6196 24.2456 45.8272 23.8992 43.0347 24.0147C38.2148 24.2456 33.8157 26.2468 29.34 27.8632C28.9958 27.9786 28.728 28.5944 28.6515 29.0562C28.575 29.4795 28.728 29.9798 28.8045 30.5186Z" fill="white"/>
<path d="M38.406 24.0532C38.2148 22.8986 38.8268 22.5138 39.8596 22.5138C41.1985 22.4753 42.4991 22.4368 43.838 22.3598C44.6795 22.2829 45.2151 22.5138 44.9091 23.5913C44.9856 23.6298 45.0621 23.7068 45.1386 23.7453C45.4064 23.5529 45.9036 23.3604 45.9419 23.1295C46.0567 22.4753 45.9801 21.7056 45.1386 21.5901C44.297 21.4747 43.4554 21.4362 42.5756 21.3977C41.6575 21.3592 40.7395 21.3977 39.7449 21.3977C39.7066 20.1662 39.6301 18.8577 39.5919 17.5877C39.4771 17.5877 39.4006 17.5877 39.2858 17.5492C38.6738 18.8577 39.4389 20.551 38.6355 21.821C38.5208 21.7825 38.406 21.7825 38.253 21.7441V18.2419C38.1383 18.2419 38.0235 18.2419 37.947 18.2419C37.794 19.281 37.6027 20.3201 37.5262 21.3592C37.4879 22.0904 37.2202 22.4753 36.5316 22.7447C34.772 23.4759 33.0123 24.3226 31.2527 25.0923C30.4876 25.4386 30.2964 25.9774 30.4494 26.8241C33.1271 25.862 35.7666 24.9768 38.406 24.0532Z" fill="white"/>
<path d="M67.708 32.5583C65.5275 36.5993 63.3471 40.6017 61.1284 44.6042L61.2814 44.6811C63.0411 42.7954 64.7625 40.9096 66.5221 39.0623C67.1724 38.3696 67.861 37.7153 68.5113 37.0226C68.7408 36.7532 69.0086 36.4069 69.0468 36.0605C69.1998 35.2523 68.3965 33.2511 67.708 32.5583Z" fill="white"/>
<path d="M44.6031 26.2083C43.7615 26.2467 42.9582 26.2852 42.0784 26.3237C42.1166 27.0164 42.1931 27.6322 42.2314 28.2864H44.6031V26.2083Z" fill="white"/>
<path d="M47.7016 26.2853H45.2534V28.248H47.5486C47.5869 27.6323 47.6634 27.0165 47.7016 26.2853Z" fill="white"/>
<path d="M48.0842 28.3634C48.8493 28.4404 49.5761 28.4789 50.3412 28.5559C50.4177 27.8631 50.4942 27.2474 50.6089 26.5162C49.8056 26.4392 49.0406 26.4007 48.2372 26.3237C48.199 27.0165 48.1607 27.6322 48.0842 28.3634Z" fill="white"/>
<path d="M69.6973 46.6439C64.6479 47.4136 59.5602 47.452 54.4725 46.8363C48.0842 46.0666 41.7342 45.066 35.3459 44.1808C35.2312 44.1808 35.1547 44.1423 35.0399 44.1423L35.4224 45.6048L33.0125 43.9884C32.9742 43.9499 32.8977 43.9114 32.8595 43.8729C32.2857 43.796 31.7119 43.7575 31.1763 43.719C30.22 45.4123 29.0724 46.8363 27.8101 47.9908C27.8483 47.9908 27.8483 47.9908 27.8866 47.9908C35.1929 48.9914 42.4993 50.146 49.8439 50.8002C58.6804 51.6084 67.2108 50.2999 75.1675 45.9896C75.397 45.8742 75.6265 45.7587 75.8178 45.6048C75.856 45.5663 75.8943 45.5278 75.8943 45.4893C73.8669 45.9126 71.8012 46.336 69.6973 46.6439Z" fill="white"/>
<path d="M56.9972 32.4044C51.2975 32.7893 45.5978 33.0972 39.8981 33.6744C37.4116 33.9438 34.8869 34.2517 32.4387 34.6366L32.63 35.3293C32.6682 35.5217 32.7447 35.7142 32.783 35.9451C32.8978 36.3684 33.0508 36.9072 33.2038 37.446C42.2698 36.2914 51.374 35.7911 60.593 35.7142C60.3253 37.292 60.3253 37.292 58.9099 37.292C50.4177 37.292 41.9255 37.4075 33.4333 38.1772C33.5098 38.4081 33.5481 38.6005 33.6246 38.8314V38.8699C34.0071 40.1014 34.3514 41.4099 34.6191 42.3721C38.0237 42.7184 41.39 43.2187 44.7562 43.6421C49.3466 44.2193 53.9752 44.6427 58.6039 45.143C59.2542 45.22 59.5985 44.9506 59.9045 44.3733C61.7789 40.6787 63.7298 36.9842 65.6425 33.3281C65.8337 32.9817 65.9867 32.6353 66.2163 32.0966C63.0413 32.1735 60.0192 32.212 56.9972 32.4044Z" fill="white"/>
<path d="M25.3618 49.7611C24.6732 50.1844 23.9082 50.5308 23.1431 50.8387C21.9572 51.3005 20.4654 51.5314 18.7822 51.5699C27.3127 52.3781 35.8431 52.686 44.4501 52.609C38.1383 51.5314 31.7501 50.4923 25.3618 49.7611Z" fill="white"/>
<path d="M33.3949 42.4106C33.1272 41.4484 32.7064 39.909 32.2473 38.4081C31.9413 37.3305 31.6353 36.2914 31.4058 35.4832C31.3293 35.2523 31.291 35.0599 31.2528 34.8675C30.9467 35.0984 30.5642 35.3678 30.1052 35.6757C29.7609 35.9066 29.3784 36.176 28.9958 36.4454C28.6898 36.6378 28.3838 36.8302 28.0777 37.0611C27.7335 37.292 27.3509 37.523 27.0067 37.7539C26.6624 37.9848 26.3564 38.2157 26.0503 38.4081C25.6295 38.6775 25.247 38.9469 24.941 39.1778C24.9792 39.1778 25.0175 39.1778 25.094 39.1778C25.2088 39.1778 25.2853 39.2163 25.4 39.2163C25.7443 39.2548 26.1268 39.2933 26.5094 39.3702C26.7771 39.4087 27.0449 39.4857 27.3127 39.5242H27.3509H27.3892C27.3892 39.5242 27.3892 39.5242 27.4274 39.5242C27.4274 39.5242 27.4274 39.5242 27.4657 39.5242C27.4657 39.5242 27.4657 39.5242 27.5039 39.5242C27.5039 39.5242 27.5039 39.5242 27.5039 39.5627V39.6012C27.5039 39.6012 27.5039 39.6012 27.5039 39.6396C27.5039 39.6396 27.5039 39.6396 27.5039 39.6781C27.5039 39.6781 27.5039 39.6781 27.5039 39.7166C27.5039 39.7166 27.5039 39.7166 27.5039 39.7551C27.5039 39.7551 27.5039 39.7551 27.5039 39.7936C27.5039 39.7936 27.5039 39.7936 27.5039 39.8321C27.5039 39.8321 27.5039 39.8321 27.5039 39.8705C27.5039 39.8705 27.5039 39.8705 27.5039 39.909C27.5039 39.909 27.5039 39.909 27.5039 39.9475C27.5039 39.9475 27.5039 39.9475 27.5039 39.986C27.5039 39.986 27.5039 39.986 27.5039 40.0245C27.5039 40.0245 27.5039 40.0245 27.5039 40.063C25.5913 43.95 22.0337 46.0666 17.3286 46.1821C17.2904 46.1821 17.2521 46.1821 17.2521 46.1821C17.2521 46.1821 17.2521 46.1821 17.2138 46.1821C17.1756 46.1821 17.1756 46.1821 17.1373 46.1821C17.1373 46.1821 17.1373 46.1821 17.0991 46.1821C17.0608 46.1821 17.0608 46.1821 17.0226 46.1821C16.9843 46.1821 16.9461 46.1821 16.9461 46.1821C16.9461 46.1821 16.9461 46.1821 16.9078 46.1821C16.8696 46.1821 16.8696 46.1821 16.8313 46.1821C16.8313 46.1821 16.8313 46.1821 16.7931 46.1821C16.7548 46.1821 16.7548 46.1821 16.7166 46.1821C16.6783 46.1821 16.64 46.1821 16.64 46.1436C16.6018 46.1436 16.6018 46.1436 16.5635 46.1051C16.5635 46.1051 16.5635 46.1051 16.5253 46.1051C16.487 46.1051 16.487 46.1051 16.4488 46.0666C16.4105 46.0666 16.4105 46.0281 16.3723 46.0281C16.334 46.0281 16.334 45.9897 16.2958 45.9897C16.2958 45.9897 16.2958 45.9897 16.2575 45.9897C16.2193 45.9897 16.2193 45.9512 16.181 45.9512C16.1428 45.9512 16.1428 45.9127 16.1045 45.9127C16.0663 45.9127 16.0663 45.8742 16.028 45.8742C16.028 45.8742 16.028 45.8742 15.9897 45.8742C15.9515 45.8742 15.9515 45.8357 15.9132 45.8357C15.875 45.7972 15.875 45.7972 15.8367 45.7588L15.7985 45.7203C15.7985 45.7203 15.7602 45.6818 15.7602 45.6433C15.722 45.6048 15.722 45.6048 15.6837 45.5663L15.6455 45.5278C15.6455 45.5278 15.6455 45.5278 15.6455 45.4894C15.6455 45.4509 15.6072 45.4509 15.6072 45.4124C15.6072 45.3739 15.569 45.3739 15.569 45.3354C15.569 45.3354 15.569 45.3354 15.569 45.2969C15.569 45.2584 15.5307 45.2584 15.5307 45.22C15.5307 45.22 15.5307 45.22 15.5307 45.1815C15.5307 45.143 15.4925 45.143 15.4925 45.1045C15.2629 44.6042 15.2629 44.0654 15.4159 43.5651L18.1702 35.7142L22.3398 23.8993C22.378 23.7453 22.4928 23.6299 22.5693 23.5144C22.7606 23.322 22.9901 23.245 23.2578 23.245C23.3344 23.245 23.4109 23.245 23.4874 23.2835L26.9684 24.2071L27.657 22.3599L24.4437 20.705C24.4054 20.6665 24.3672 20.6665 24.3289 20.628C24.2142 20.5511 24.0994 20.4356 24.0229 20.2817C23.8699 20.0508 23.8699 19.7429 23.9464 19.435L24.1377 18.8962L25.6295 19.4735L25.9356 18.7038L24.4437 18.1265L24.7115 17.3568L26.2033 17.9341L26.5094 17.1644L25.0175 16.5871L25.3235 15.7789H25.5148C25.8591 15.7789 26.1651 15.7404 26.4711 15.625H26.5094C26.5476 15.625 26.5476 15.625 26.5859 15.5865C26.9302 15.471 27.2744 15.3171 27.5805 15.0862C27.963 14.8168 28.3073 14.4704 28.575 14.0856C28.728 13.8547 28.8811 13.5853 28.9576 13.3159V13.2774C28.9576 13.2774 28.9576 13.2389 28.9958 13.2389V13.2004V13.1619V13.1234V13.085V13.0465V13.008V12.9695V12.931V12.8925V12.8541V12.8156V12.7771V12.7386V12.7001V12.6616V12.6231V12.5847V12.5462V12.5077V12.4692V12.4307V12.3922V12.3537V12.3153V12.2768V12.2383V12.1998V12.1613V12.1228V12.0844V12.0459V12.0074V11.9689V11.9304V11.8919V11.8534V11.815V11.7765V11.738V11.6995V11.661V11.6225V11.584V11.5456V11.5071V11.4686V11.4301V11.3916V11.3531V11.3146V11.2762V11.2377V11.1992V11.1607V11.1222V11.0837V11.0453V11.0068V10.9683V10.9298C28.9958 10.9298 28.9958 10.8913 28.9576 10.8913V10.8528C28.9576 10.8528 28.9576 10.8143 28.9193 10.8143V10.7759C28.9193 10.7759 28.9193 10.7374 28.8811 10.7374V10.6989C28.8811 10.6989 28.8811 10.6604 28.8428 10.6604V10.6219C28.8428 10.6219 28.8428 10.5834 28.8046 10.5834V10.5449C28.8046 10.5449 28.8046 10.5065 28.7663 10.5065C28.7663 10.5065 28.7663 10.468 28.728 10.468C28.728 10.468 28.728 10.4295 28.6898 10.4295C28.6898 10.4295 28.6898 10.391 28.6515 10.391L28.6133 10.3525C28.6133 10.3525 28.6133 10.3525 28.6133 10.314L28.575 10.2756C28.575 10.2756 28.575 10.2756 28.575 10.2371C28.4985 10.1601 28.4603 10.0831 28.3838 10.0062C28.3838 10.0062 28.3838 10.0062 28.3455 9.96767L28.3073 9.92919C28.3073 9.92919 28.3073 9.92919 28.269 9.8907L28.2308 9.85222C28.2308 9.85222 28.2308 9.81373 28.1925 9.81373L28.1543 9.77525L28.116 9.73676L28.0777 9.69828L28.0395 9.65979L28.0012 9.62131L27.963 9.58282L27.9247 9.54434L27.8865 9.50585L27.8482 9.46737L27.81 9.42888L27.7717 9.3904L27.7335 9.35191C27.7335 9.35191 27.6952 9.35191 27.6952 9.31343C27.6952 9.31343 27.657 9.31343 27.657 9.27494C27.657 9.27494 27.6187 9.27494 27.6187 9.23646C27.6187 9.23646 27.5805 9.23646 27.5805 9.19797C27.5805 9.19797 27.5422 9.19797 27.5422 9.15949C27.5422 9.15949 27.5039 9.15949 27.5039 9.121C27.5039 9.121 27.4657 9.121 27.4657 9.08252C27.4657 9.08252 27.4274 9.08252 27.4274 9.04403C27.4274 9.04403 27.3892 9.04403 27.3892 9.00555C27.3892 9.00555 27.3509 9.00555 27.3509 8.96706C27.3509 8.96706 27.3127 8.96706 27.3127 8.92858C27.3127 8.92858 27.2744 8.92858 27.2744 8.89009C27.2744 8.89009 27.2362 8.89009 27.2362 8.85161C27.2362 8.85161 27.1979 8.85161 27.1979 8.81312C27.1979 8.81312 27.1597 8.81312 27.1597 8.77464C27.1597 8.77464 27.1214 8.77464 27.1214 8.73615C27.1214 8.73615 27.0832 8.73615 27.0832 8.69767C27.0832 8.69767 27.0449 8.69767 27.0449 8.65918H27.0067C27.0067 8.65918 26.9684 8.65918 26.9684 8.6207H26.9302C26.9302 8.6207 26.8919 8.6207 26.8919 8.58221H26.8536C26.8536 8.58221 26.8536 8.58221 26.8154 8.58221H26.7771H26.7389C26.7006 8.58221 26.7006 8.58221 26.6624 8.54373C24.9792 8.04342 22.9136 8.96706 22.1868 10.7759C21.8807 11.5456 21.8042 12.3537 21.9955 13.1619C22.1868 13.8931 22.5693 14.5474 23.1048 15.0477L23.2196 15.1632L22.9518 15.9713L21.4599 15.3941L21.1539 16.1638L22.6458 16.741L22.378 17.5107L20.8862 16.9335L20.5801 17.7032L22.072 18.2804L21.8807 18.8577C21.6895 19.3195 21.1922 19.5889 20.6949 19.4735L17.2138 18.5498L16.5253 20.3971L19.7386 22.052C20.1976 22.2829 20.3889 22.8217 20.1976 23.322L12.5087 42.68C12.3174 43.1803 11.9349 43.5651 11.4376 43.796L11.2846 43.873C10.5578 44.2194 9.71623 44.0654 9.10418 43.5651C7.68881 42.3336 6.3117 40.7942 5.7379 39.2163C4.74332 36.5608 4.70506 34.2132 5.58489 32.0581C5.7379 31.7117 6.15868 31.5578 6.50296 31.7502C7.00025 32.0196 7.49754 32.366 7.95658 32.6738C8.14785 32.7893 8.33911 32.9432 8.49213 33.0587C8.22435 32.0966 7.80357 30.5572 7.34453 29.0947C6.92375 27.6708 6.54121 26.3238 6.3117 25.5156C5.58489 26.0544 4.36078 26.8626 3.09843 27.6708C1.91258 28.4405 0.726733 29.2487 -0.0383301 29.7875H-7.69123e-05C0.726733 29.8644 1.4918 29.9799 2.29511 30.1723C2.67764 30.2493 2.86891 30.6341 2.75415 31.019C1.68306 34.2517 1.87433 37.5614 3.2897 40.9096C4.28428 43.2187 6.42646 45.5663 8.98942 47.2212C10.0605 47.9139 10.8638 48.9145 11.3229 50.1076C11.3611 50.1076 11.3994 50.0691 11.4376 50.0691C12.1262 49.7227 12.8912 49.5303 13.6946 49.4533C14.1536 49.4148 14.6126 49.4533 15.0717 49.5303C15.9132 49.6842 16.7166 49.7612 17.5581 49.7997C19.4708 49.8767 21.2304 49.6457 22.5693 49.1454C25.9356 47.8754 28.6133 45.2969 30.4877 41.4869L30.5259 41.4484L30.5642 41.4099L30.6025 41.3715L30.6407 41.333L30.679 41.2945L30.7172 41.256C30.7172 41.256 30.7555 41.256 30.7555 41.2175C30.7555 41.2175 30.7937 41.2175 30.7937 41.179H30.832H30.8702H30.9085H30.9467H30.985H31.0232H31.0615H31.0997C31.0997 41.179 31.0997 41.179 31.138 41.179H31.1763C31.6735 41.4484 32.1708 41.7948 32.6299 42.1027C32.6299 42.1027 32.6681 42.1027 32.6681 42.1412C32.8211 42.2566 32.9742 42.3336 33.0889 42.449C33.3567 42.3721 33.3949 42.4106 33.3949 42.4106ZM23.0666 11.2762C23.6021 9.85222 25.1323 9.15949 26.5476 9.62131C26.5859 9.62131 26.5859 9.62131 26.6241 9.65979C28.0395 10.1986 28.7663 11.815 28.2308 13.2389C27.6952 14.6628 26.0886 15.3941 24.6732 14.8553C24.635 14.8553 24.635 14.8553 24.5967 14.8168C23.2196 14.278 22.531 12.7001 23.0666 11.2762Z" fill="white"/>
<path d="M9.75442 31.0189C9.98393 15.0092 22.99 2.07819 38.9798 2.07819C54.7401 2.07819 67.5932 14.6628 68.167 30.4032L70.2709 31.7117C70.2709 31.6347 70.2709 31.5577 70.2709 31.4808C70.2709 14.124 56.232 0 38.9798 0C23.6786 0 10.8638 11.1222 8.18604 25.785L9.75442 31.0189Z" fill="white"/>
<path d="M59.2924 52.5706C54.0135 57.7276 46.8601 60.8834 38.9417 60.8834C30.4113 60.8834 22.6841 57.1888 17.3287 51.2621C16.5254 51.1466 15.4926 51.0697 14.4597 51.1082C20.1977 58.3433 29.0342 62.9615 38.9035 62.9615C48.2755 62.9615 56.6912 58.8052 62.4292 52.2242C61.5494 52.3782 60.4783 52.4936 59.2924 52.5706Z" fill="white"/>
<path d="M76.315 49.2993L75.9708 51.1466H82.0913L81.4027 54.4178H75.2439L74.3259 59.036H70.6536L73.3695 46.0281H83.7361L83.0858 49.2993H76.315Z" fill="white"/>
<path d="M88.556 49.2993L88.2882 50.7617H94.4087L93.7202 54.033H87.5997L87.2554 55.7648H93.9879L93.2994 59.036H82.8945L85.6105 46.0281H95.9771L95.3268 49.2993H88.556Z" fill="white"/>
<path d="M104.661 54.6872L107.262 59.036H103.207L100.874 55.1105H99.6494L98.8079 59.036H95.1738L97.8515 46.0281H103.934C106.459 46.0281 108.103 47.5675 108.103 49.7996C108.065 52.0702 106.688 53.9175 104.661 54.6872ZM100.3 51.8008H102.442C103.398 51.8008 104.393 50.9157 104.393 50.146C104.393 49.6842 103.972 49.3763 103.207 49.3763H100.874L100.3 51.8008Z" fill="white"/>
<path d="M118.202 54.6872L120.803 59.036H116.748L114.415 55.1105H113.191L112.349 59.036H108.715L111.393 46.0281H117.475C120 46.0281 121.645 47.5675 121.645 49.7996C121.645 52.0702 120.23 53.9175 118.202 54.6872ZM113.841 51.8008H115.983C116.94 51.8008 117.934 50.9157 117.934 50.146C117.934 49.6842 117.514 49.3763 116.748 49.3763H114.377L113.841 51.8008Z" fill="white"/>
<path d="M125.662 54.7642L122.487 46.0281H125.853L127.88 51.5699L131.935 46.0281H136.028L129.296 54.7642L128.339 59.036H124.705L125.662 54.7642Z" fill="white"/>
<path d="M142.187 46.0281H149.034C151.215 46.0281 152.668 47.2211 152.668 48.9145C152.668 50.4154 151.674 51.6854 150.258 52.3011C151.329 52.8014 152.018 53.8021 152.018 55.0336C152.018 57.5351 149.608 58.9975 146.892 58.9975H139.547L142.187 46.0281ZM146.624 55.9572C147.657 55.9572 148.384 55.3799 148.384 54.5333C148.384 54.0714 148.078 53.879 147.275 53.879H144.176L143.755 55.9572H146.624ZM147.083 51.0696C148.078 51.0696 148.766 50.4923 148.766 49.6842C148.728 49.2608 148.46 49.1069 147.695 49.1069H145.132L144.75 51.0696H147.083Z" fill="white"/>
<path d="M153.625 53.5712C153.625 49.3763 157.794 45.7972 161.887 45.7972C165.368 45.7972 167.855 48.2988 167.855 51.4545C167.855 55.6494 163.685 59.2285 159.592 59.2285C156.111 59.267 153.625 56.727 153.625 53.5712ZM164.144 51.6085C164.144 50.1845 163.111 49.1454 161.696 49.1454C159.477 49.1454 157.335 51.4161 157.335 53.4558C157.335 54.8797 158.368 55.9188 159.783 55.9188C162.002 55.9188 164.144 53.6482 164.144 51.6085Z" fill="white"/>
<path d="M168.926 53.5712C168.926 49.3763 173.095 45.7972 177.188 45.7972C180.67 45.7972 183.156 48.2988 183.156 51.4545C183.156 55.6494 178.986 59.2285 174.893 59.2285C171.412 59.267 168.926 56.727 168.926 53.5712ZM179.445 51.6085C179.445 50.1845 178.413 49.1454 176.997 49.1454C174.779 49.1454 172.636 51.4161 172.636 53.4558C172.636 54.8797 173.669 55.9188 175.085 55.9188C177.303 55.9188 179.445 53.6482 179.445 51.6085Z" fill="white"/>
<path d="M186.14 46.0281H189.812L188.818 50.6463L193.867 46.0281H198.496L192.452 51.5699L195.971 59.036H191.84L189.544 54.1099L187.861 55.5724L187.096 59.036H183.462L186.14 46.0281Z" fill="white"/>
<path d="M199.72 46.0281H203.354L200.676 59.036H197.004L199.72 46.0281Z" fill="white"/>
<path d="M205.649 46.0281H209.283L212.879 52.9939L214.371 46.0281H218.005L215.327 59.036H211.731L208.097 52.0702L206.644 59.036H202.971L205.649 46.0281Z" fill="white"/>
<path d="M225.12 51.5315H231.164L230.016 57.0733C228.371 58.5358 226.306 59.267 224.393 59.267C220.874 59.267 218.349 56.7654 218.349 53.5712C218.349 49.3763 222.595 45.8357 226.688 45.8357C228.868 45.8357 230.666 46.7978 231.737 48.2218L228.715 50.3769C228.256 49.5303 227.377 49.1839 226.497 49.1839C224.24 49.1839 222.059 51.416 222.059 53.4942C222.059 54.9182 223.131 55.9957 224.622 55.9957C225.426 55.9957 226.191 55.7263 226.879 55.2645L227.071 54.3024H224.546L225.12 51.5315Z" fill="white"/>
<path d="M88.9002 26.5162H101.141L98.8078 37.6769C95.518 40.6403 91.2719 42.1027 87.4083 42.1027C80.2932 42.1027 75.2056 37.0227 75.2056 30.5572C75.2056 22.0905 83.7743 14.9323 92.0752 14.9323C96.4361 14.9323 100.108 16.8565 102.251 19.7429L96.1683 24.0917C95.212 22.3983 93.4523 21.6286 91.6544 21.6286C87.1406 21.6286 82.6649 26.1314 82.6649 30.3263C82.6649 33.2126 84.8071 35.3678 87.8291 35.3678C89.4357 35.3678 90.9659 34.7905 92.343 33.9054L92.7255 31.9426H87.7143L88.9002 26.5162Z" fill="white"/>
<path d="M122.869 35.0599L121.492 41.6793H101.945L107.377 15.394H114.759L110.781 35.0599H122.869Z" fill="white"/>
<path d="M126.197 30.5957C126.197 22.129 134.651 14.9323 142.875 14.9323C149.914 14.9323 154.925 19.9738 154.925 26.4008C154.925 34.8675 146.471 42.1027 138.209 42.1027C131.208 42.1027 126.197 37.0227 126.197 30.5957ZM147.466 26.6702C147.466 23.7838 145.362 21.6671 142.493 21.6671C138.056 21.6671 133.695 26.2469 133.695 30.4032C133.695 33.2896 135.76 35.4063 138.668 35.4063C143.105 35.4063 147.466 30.7881 147.466 26.6702Z" fill="white"/>
<path d="M161.046 15.394H174.893C179.292 15.394 182.238 17.8571 182.238 21.2438C182.238 24.2841 180.249 26.8241 177.342 28.1326C179.522 29.1332 180.861 31.2114 180.861 33.6744C180.861 38.7545 175.964 41.6793 170.494 41.6793H155.614L161.046 15.394ZM170.035 35.4447C172.139 35.4447 173.593 34.2517 173.593 32.5199C173.593 31.5962 172.942 31.2114 171.336 31.2114H165.062L164.182 35.4063H170.035V35.4447ZM170.992 25.5926C173.019 25.5926 174.396 24.438 174.396 22.7832C174.358 21.9365 173.746 21.5901 172.254 21.5901H167.051L166.248 25.5541H170.992V25.5926Z" fill="white"/>
<path d="M200.982 38.1387H191.878L189.812 41.6408H181.32L196.851 15.394H205.305L205.228 15.548L209.78 41.6793H201.594L200.982 38.1387ZM199.987 32.6738L198.878 26.2853L195.129 32.6738H199.987Z" fill="white"/>
<path d="M233 35.0599L231.623 41.6793H212.075L217.507 15.394H224.89L220.912 35.0599H233Z" fill="white"/>
</g>
<defs>
<clipPath id="clip0_245_3885">
<rect width="233" height="63" fill="white"/>
</clipPath>
</defs>
</svg>
