<svg width="29" height="30" viewBox="0 0 29 30" fill="none" xmlns="http://www.w3.org/2000/svg">
<g id="Profile Circle">
<path id="Vector" d="M19.4982 11C19.4982 13.5313 17.4462 15.5833 14.9149 15.5833V17.0833C18.2746 17.0833 20.9982 14.3597 20.9982 11H19.4982ZM14.9149 15.5833C12.3836 15.5833 10.3315 13.5313 10.3315 11H8.83154C8.83154 14.3597 11.5551 17.0833 14.9149 17.0833V15.5833ZM10.3315 11C10.3315 8.46865 12.3836 6.41663 14.9149 6.41663V4.91663C11.5551 4.91663 8.83154 7.64023 8.83154 11H10.3315ZM14.9149 6.41663C17.4462 6.41663 19.4982 8.46865 19.4982 11H20.9982C20.9982 7.64023 18.2746 4.91663 14.9149 4.91663V6.41663ZM10.9149 21.0833H18.9149V19.5833H10.9149V21.0833ZM2.33154 15C2.33154 8.05038 7.96529 2.41663 14.9149 2.41663V0.916626C7.13687 0.916626 0.831543 7.22195 0.831543 15H2.33154ZM14.9149 2.41663C21.8645 2.41663 27.4982 8.05038 27.4982 15H28.9982C28.9982 7.22195 22.6929 0.916626 14.9149 0.916626V2.41663ZM27.4982 15C27.4982 18.5685 26.0137 21.7891 23.6265 24.0801L24.6651 25.1623C27.3348 22.6003 28.9982 18.9937 28.9982 15H27.4982ZM23.6265 24.0801C21.3648 26.2505 18.2963 27.5833 14.9149 27.5833V29.0833C18.6987 29.0833 22.1354 27.5901 24.6651 25.1623L23.6265 24.0801ZM18.9149 21.0833C21.1378 21.0833 22.9927 22.6666 23.4102 24.7674L24.8814 24.475C24.3271 21.6859 21.8674 19.5833 18.9149 19.5833V21.0833ZM14.9149 27.5833C11.5335 27.5833 8.46491 26.2505 6.20327 24.0801L5.16465 25.1623C7.6944 27.5901 11.131 29.0833 14.9149 29.0833V27.5833ZM6.20327 24.0801C3.81606 21.7891 2.33154 18.5685 2.33154 15H0.831543C0.831543 18.9937 2.49492 22.6003 5.16465 25.1623L6.20327 24.0801ZM10.9149 19.5833C7.9624 19.5833 5.50266 21.6859 4.94835 24.475L6.41957 24.7674C6.83708 22.6666 8.69191 21.0833 10.9149 21.0833V19.5833Z" fill="#F8F8F8"/>
</g>
</svg>
